<?xml version="1.0" encoding="UTF-8"?>
<svg id="Layer_1" xmlns="http://www.w3.org/2000/svg" version="1.1" viewBox="0 0 599.6 89.1">
  <!-- Generator: Adobe Illustrator 29.3.1, SVG Export Plug-In . SVG Version: 2.1.0 Build 151)  -->
  <defs>
    <style>
      .st0 {
        fill: #ff53d9;
      }

      .st1 {
        fill: #fffcf9;
      }
    </style>
  </defs>
  <path class="st1" d="M325.2,18.8V3.9h22v14.9h-22ZM325.2,84.1V25.7h22v58.4h-22Z"/>
  <path class="st1" d="M34.5,23.7c10.7,0,18.8,2.5,24.4,7.5,5.7,5,8.5,12.7,8.5,23v3.8H23.7c0,4.2.9,7.4,2.8,9.5,1.9,2.1,4.9,3.2,9,3.2s6.4-.8,8.1-2.3c1.8-1.5,2.7-3.6,2.7-6.2h21.3c0,7.1-2.7,12.6-8.1,16.6-5.4,4-13.2,6-23.6,6s-19.2-2.5-25.2-7.5c-6-5.1-9-12.8-9-23s2.9-17.6,8.7-22.8c5.8-5.2,13.9-7.7,24.1-7.7ZM35.4,37.8c-6.9,0-10.8,3.3-11.6,9.8h21.5c0-3-.9-5.4-2.7-7.2-1.7-1.8-4.1-2.7-7.2-2.7ZM72.2,83.5V3.3h22v80.2h-22ZM131.8,23.7c10.7,0,18.8,2.5,24.4,7.5,5.7,5,8.5,12.7,8.5,23v3.8h-43.8c0,4.2.9,7.4,2.8,9.5,1.9,2.1,4.9,3.2,9,3.2s6.4-.8,8.1-2.3c1.8-1.5,2.7-3.6,2.7-6.2h21.3c0,7.1-2.7,12.6-8.1,16.6-5.4,4-13.2,6-23.6,6s-19.2-2.5-25.2-7.5c-6-5.1-9-12.8-9-23s2.9-17.6,8.7-22.8c5.8-5.2,13.9-7.7,24.1-7.7ZM132.7,37.8c-6.9,0-10.8,3.3-11.6,9.8h21.5c0-3-.9-5.4-2.7-7.2-1.7-1.8-4.1-2.7-7.2-2.7ZM198.9,23.7c9.6,0,17.3,2.1,23.2,6.2,6,4.1,9,10.3,9,18.7h-21.3c0-6.6-3.6-10-10.8-10s-10.8,4.2-10.8,12.5v6.3c0,8.3,3.8,12.4,11.3,12.4s11.3-3.4,11.3-10.2h20.5c0,8.5-3,14.8-9,18.9-5.9,4.1-13.6,6.2-23.2,6.2s-18.3-2.6-24.1-7.7c-5.8-5.2-8.7-12.8-8.7-22.8s2.9-17.6,8.7-22.8c5.8-5.2,13.9-7.7,24.1-7.7ZM274.8,25.1v14.9h-12.4v22.2c0,2.7.4,4.6,1.3,5.9.9,1.2,2.5,1.8,4.9,1.8h6.2v12.9c-1.8.6-4.1,1.1-6.9,1.4-2.8.4-5.2.6-7.3.6-6.5,0-11.5-1.2-15-3.5-3.5-2.4-5.2-6.4-5.2-12.1v-29.2h-8.2v-14.9h9.1l4.8-17.7h16.4v17.7h12.4ZM313.8,23.6c1.7,0,3.2.2,4.5.7,1.3.4,2,.6,2,.7v18.5h-7.1c-4.6,0-7.9,1.2-10,3.5-2,2.4-3,5.9-3,10.5v26h-22V25.1h18l1.4,8.8c1.3-3.4,3.4-5.9,6.3-7.6,2.9-1.8,6.1-2.7,9.7-2.7ZM393.9,25.1h25.7l-21.6,23.6,22.1,34.8h-25l-12.3-20-7.6,7.4v12.6h-22V3.2h22v44.2l18.7-22.3Z"/>
  <path class="st1" d="M469,23.7c10.7,0,18.8,2.5,24.4,7.5,5.7,5,8.5,12.7,8.5,23v3.8h-43.8c0,4.2.9,7.4,2.8,9.5,1.9,2.1,4.9,3.2,9,3.2s6.4-.8,8.1-2.3c1.8-1.5,2.7-3.6,2.7-6.2h21.3c0,7.1-2.7,12.6-8.1,16.6-5.4,4-13.2,6-23.6,6s-19.2-2.5-25.2-7.5c-6-5.1-9-12.8-9-23s2.9-17.6,8.7-22.8c5.8-5.2,13.9-7.7,24.1-7.7ZM469.9,37.8c-6.9,0-10.8,3.3-11.6,9.8h21.5c0-3-.9-5.4-2.7-7.2-1.7-1.8-4.1-2.7-7.2-2.7ZM537.2,23.7c10.7,0,18.8,2.5,24.4,7.5,5.7,5,8.5,12.7,8.5,23v3.8h-43.8c0,4.2.9,7.4,2.8,9.5,1.9,2.1,4.9,3.2,9,3.2s6.4-.8,8.1-2.3c1.8-1.5,2.7-3.6,2.7-6.2h21.3c0,7.1-2.7,12.6-8.1,16.6-5.4,4-13.2,6-23.6,6s-19.2-2.5-25.2-7.5c-6-5.1-9-12.8-9-23s2.9-17.6,8.7-22.8c5.8-5.2,13.9-7.7,24.1-7.7ZM538.1,37.8c-6.9,0-10.8,3.3-11.6,9.8h21.5c0-3-.9-5.4-2.7-7.2-1.7-1.8-4.1-2.7-7.2-2.7ZM576.1,83.5V3.3h22v80.2h-22Z"/>
  <path class="st0" d="M419.5,25.6l-21.5,23.1,11.2,17.5,23.9-29.5v25.5h14.3V11.2h-53.8v14.3h25.9Z"/>
</svg>